<svg xmlns="http://www.w3.org/2000/svg" viewBox="0 0 413.76 530.2"><defs><style>.cls-1{fill:#fff;}</style></defs><title>logo_digides_putih</title><g id="Layer_2" data-name="Layer 2"><g id="Layer_1-2" data-name="Layer 1"><path class="cls-1" d="M60.46,507.8a32.42,32.42,0,0,1-7.63,11.13,36,36,0,0,1-11.77,7.38A40.54,40.54,0,0,1,26,529H0V459.16H26a41.36,41.36,0,0,1,15,2.65,35.53,35.53,0,0,1,11.77,7.33,32.5,32.5,0,0,1,7.63,11.08A34.94,34.94,0,0,1,63.16,494,35.32,35.32,0,0,1,60.46,507.8ZM48.54,484.62a22.85,22.85,0,0,0-4.91-7.57A22.16,22.16,0,0,0,36,472a26.73,26.73,0,0,0-10-1.8H12.17v47.69H26a27.34,27.34,0,0,0,10-1.75,21.94,21.94,0,0,0,7.65-4.91,22.33,22.33,0,0,0,4.91-7.52,27,27,0,0,0,0-19.13Z"/><path class="cls-1" d="M90.89,459.16V529H78.72V459.16Z"/><path class="cls-1" d="M166.17,523.52a43,43,0,0,1-14.61,5.84,44.71,44.71,0,0,1-8.78.84,38.8,38.8,0,0,1-14.87-2.74,33.61,33.61,0,0,1-11.42-7.58,34,34,0,0,1-7.34-11.43,38.55,38.55,0,0,1-2.59-14.27,37.15,37.15,0,0,1,2.64-14,34.89,34.89,0,0,1,18.86-19.36A35.89,35.89,0,0,1,142.58,458a48.32,48.32,0,0,1,8.33.65,38.14,38.14,0,0,1,6.93,1.84,35.52,35.52,0,0,1,6,2.94,44.68,44.68,0,0,1,5.54,4.05l-7.79,9.27a43.44,43.44,0,0,0-4.09-3.09,25,25,0,0,0-4.39-2.34,26.81,26.81,0,0,0-5-1.5,30.49,30.49,0,0,0-6-.55,20.67,20.67,0,0,0-8.93,1.95,22.28,22.28,0,0,0-7.19,5.35,25.75,25.75,0,0,0-4.79,7.9,26.39,26.39,0,0,0-1.74,9.6,28.66,28.66,0,0,0,1.69,10,23.2,23.2,0,0,0,4.84,8,22.63,22.63,0,0,0,7.49,5.25,24.08,24.08,0,0,0,9.72,1.9,29.14,29.14,0,0,0,9.33-1.46,26.12,26.12,0,0,0,7.54-3.86V500.67H142.18V490h29.73v29.34A52.13,52.13,0,0,1,166.17,523.52Z"/><path class="cls-1" d="M200.75,459.16V529H188.57V459.16Z"/><path class="cls-1" d="M280,507.8a32.42,32.42,0,0,1-7.63,11.13,36,36,0,0,1-11.77,7.38,40.54,40.54,0,0,1-15,2.7h-26V459.16h26a41.36,41.36,0,0,1,15,2.65,35.53,35.53,0,0,1,11.77,7.33A32.5,32.5,0,0,1,280,480.22a34.94,34.94,0,0,1,2.7,13.77A35.32,35.32,0,0,1,280,507.8ZM268,484.62a22.83,22.83,0,0,0-4.9-7.57,22.3,22.3,0,0,0-7.66-5,26.69,26.69,0,0,0-10-1.8H231.67v47.69h13.81a27.3,27.3,0,0,0,10-1.75,22.07,22.07,0,0,0,7.66-4.91,22.31,22.31,0,0,0,4.9-7.52,27,27,0,0,0,0-19.13Z"/><path class="cls-1" d="M349.21,470.24H309.7v18h35v11.07h-35v18.66h40V529H297.52V459.16h51.69Z"/><path class="cls-1" d="M375.35,481a7.44,7.44,0,0,0,2.55,2.8,20.51,20.51,0,0,0,5.1,2.39c2.17.74,4.92,1.5,8.26,2.3a79.4,79.4,0,0,1,9.75,3.09,24.4,24.4,0,0,1,7.05,4.14,16.39,16.39,0,0,1,4.25,5.69,18.48,18.48,0,0,1,1.45,7.63,20.6,20.6,0,0,1-1.83,8.88,18.77,18.77,0,0,1-5.1,6.59,22.48,22.48,0,0,1-7.84,4.09A34.48,34.48,0,0,1,388.92,530a44.06,44.06,0,0,1-15.47-2.74,42.39,42.39,0,0,1-13.67-8.43l7.39-8.78a42.78,42.78,0,0,0,10.27,6.73,28.22,28.22,0,0,0,11.78,2.35q5.68,0,9-2.4a7.54,7.54,0,0,0,3.34-6.48,8.47,8.47,0,0,0-.65-3.39,6.73,6.73,0,0,0-2.4-2.75,20.24,20.24,0,0,0-4.8-2.34q-3.06-1.09-7.95-2.3a84,84,0,0,1-10-2.89,25.43,25.43,0,0,1-7.3-4,15.84,15.84,0,0,1-4.5-5.79,19.74,19.74,0,0,1-1.55-8.28,19.08,19.08,0,0,1,1.78-8.33,19.49,19.49,0,0,1,4.9-6.44,21.87,21.87,0,0,1,7.5-4.14,30.47,30.47,0,0,1,9.56-1.44A39.91,39.91,0,0,1,400,460.41,41.23,41.23,0,0,1,411.57,467L405,476.22a42.92,42.92,0,0,0-9.48-5.33A25.65,25.65,0,0,0,386,469c-3.6,0-6.39.82-8.39,2.45a7.41,7.41,0,0,0-3,5.93A8.33,8.33,0,0,0,375.35,481Z"/><line class="cls-1" x1="317.21" y1="270.56" x2="317.21" y2="265.69"/><path class="cls-1" d="M88.3,288c.31,1.42.65,2.82,1,4.21C88.94,290.84,88.61,289.44,88.3,288Z"/><path class="cls-1" d="M89.31,292.23c.37,1.4.76,2.78,1.18,4.15C90.07,295,89.67,293.63,89.31,292.23Z"/><path class="cls-1" d="M86.5,276.9l-.12-1.18Z"/><path class="cls-1" d="M86.38,275.72q-.33-3.53-.44-7.12c0,.66,0,1.31.08,2C86.1,272.3,86.22,274,86.38,275.72Z"/><path class="cls-1" d="M85.94,268.6l0-1.56Z"/><path class="cls-1" d="M85.89,265.69a103.73,103.73,0,0,1,22.24-64.35A103.83,103.83,0,0,0,85.9,265.69c0,.45,0,.9,0,1.35C85.91,266.59,85.89,266.14,85.89,265.69Z"/><path class="cls-1" d="M87.19,282.12c-.18-1.09-.33-2.18-.46-3.28C86.87,279.94,87,281,87.19,282.12Z"/><path class="cls-1" d="M86.73,278.84c-.09-.65-.16-1.29-.23-1.94C86.57,277.55,86.64,278.19,86.73,278.84Z"/><path class="cls-1" d="M100.38,318.7a104.85,104.85,0,0,0,6.87,10.18A98.61,98.61,0,0,1,100.38,318.7Z"/><path class="cls-1" d="M109.7,199.39q1.59-1.94,3.28-3.78Q111.3,197.46,109.7,199.39Z"/><path class="cls-1" d="M251.41,146.18a16.24,16.24,0,0,0-3.29-4h0a15.49,15.49,0,0,0-1.64-1.29c-.29-.2-.59-.39-.89-.57h0a16.15,16.15,0,0,0-4.16-1.77h0c-2.2-.88-4.41-1.71-6.66-2.48l-1.8-.6c-.68-.23-1.36-.45-2.05-.66q-5.48-1.69-11.14-2.95l-.32-.07c-1.09-.24-2.18-.46-3.27-.67-1.35-.26-2.7-.5-4.05-.71l-1.41-.22c-1.28-.2-2.57-.37-3.86-.53l-1.66-.19-1.86-.19-1.56-.14q-3-.26-5.93-.37l-1.9-.07c-1.26,0-2.53-.05-3.8-.05-1.5,0-3,0-4.49.07A137.1,137.1,0,0,0,53,265.69c0,.85,0,1.7,0,2.55s0,1.55.07,2.32.05,1.4.09,2.09.09,1.65.14,2.47c0,.61.09,1.23.14,1.84s.08,1,.13,1.47.07.85.12,1.27c.18,1.8.4,3.59.65,5.36.07.48.13.95.21,1.43.2,1.34.43,2.67.67,4,.09.53.19,1.06.3,1.58s.25,1.26.38,1.89c.45,2.16,1,4.31,1.52,6.43.17.68.35,1.36.54,2s.38,1.36.58,2,.33,1.1.5,1.66c.33,1.07.67,2.14,1,3.21.56,1.65,1.14,3.3,1.76,4.92l.43,1.14q1.44,3.67,3.07,7.25c.16.36.32.71.49,1.06q1,2.24,2.16,4.41c.24.49.5,1,.75,1.45l.21.4c.5.94,1,1.88,1.54,2.81s1,1.74,1.49,2.6l.34.56c.45.76.91,1.51,1.38,2.26l.3.47c.58.93,1.18,1.86,1.79,2.77s1,1.53,1.54,2.28c.32.46.63.91.95,1.35.42.6.85,1.18,1.28,1.77l.66.89,1.41,1.85.14.18c.67.86,1.34,1.71,2,2.55.51.63,1,1.25,1.55,1.87l.25.29c.61.71,1.22,1.42,1.84,2.12l.06.07c.61.68,1.21,1.35,1.83,2s1.27,1.37,1.92,2,1.31,1.34,2,2,1.33,1.32,2,2q1.92,1.83,3.9,3.6l.23.2c.71.62,1.41,1.24,2.13,1.84s1.43,1.21,2.16,1.8l1.79,1.43.52.4c.69.54,1.39,1.08,2.1,1.61l0,0c.75.56,1.51,1.11,2.27,1.66l.36.26c.64.45,1.29.91,1.95,1.36s1.55,1,2.34,1.57,1.47.95,2.21,1.42c.13.07.25.15.37.23,1.53.95,3.07,1.88,4.64,2.77.76.43,1.52.86,2.29,1.28l.34.19c.78.41,1.56.83,2.35,1.23l.46.24c.63.33,1.28.65,1.92,1l.39.19q2.43,1.2,4.92,2.29l.29.13,2.33,1,2.29.93.37.14c.86.34,1.72.67,2.59,1l.18.07c.86.32,1.73.62,2.59.92l2.17.73.79.25,2.52.77c.78.24,1.57.46,2.36.68,1.1.31,2.21.6,3.33.88l2.41.58.3.07c2,.46,4.07.88,6.14,1.25l.25.05,1.2.21h0a16.26,16.26,0,0,0,2.11.14,16.47,16.47,0,0,0,16.43-15.62c0-.28,0-.57,0-.85a16.54,16.54,0,0,0-5.51-12.29h0a13.3,13.3,0,0,0-1.63-1.28c-.29-.2-.59-.39-.88-.57h0a15.72,15.72,0,0,0-4.15-1.76h0l-.45-.11a13.32,13.32,0,0,0-1.89-.32c-1.51-.28-3-.6-4.5-.94-.65-.15-1.29-.3-1.93-.47-.36-.08-.72-.18-1.07-.27-.72-.19-1.43-.38-2.14-.59a102.09,102.09,0,0,1-18.58-7.31c-.55-.28-1.1-.56-1.64-.86a101.14,101.14,0,0,1-11-6.79c-.61-.43-1.22-.86-1.82-1.31-.78-.57-1.55-1.15-2.3-1.74-.59-.46-1.18-.93-1.76-1.41s-1-.85-1.55-1.29c-.18-.14-.35-.29-.52-.44-.56-.48-1.12-1-1.66-1.46s-1.22-1.1-1.81-1.66-1.19-1.13-1.77-1.71-1.16-1.15-1.73-1.74-1.13-1.18-1.69-1.79-1.1-1.21-1.64-1.82-1.08-1.24-1.61-1.86l-1.56-1.9c-.51-.64-1-1.29-1.51-1.94a98.61,98.61,0,0,1-6.87-10.18c-.3-.5-.6-1-.89-1.52s-.58-1-.86-1.54-.56-1-.83-1.55L97,312.52c-.56-1.12-1.11-2.26-1.64-3.4-.7-1.54-1.37-3.09-2-4.67-.26-.66-.52-1.32-.77-2s-.42-1.1-.61-1.65c-.1-.28-.2-.56-.29-.83-.19-.52-.36-1-.53-1.55-.23-.68-.44-1.36-.66-2.05-.42-1.37-.82-2.75-1.18-4.15s-.7-2.79-1-4.21c-.15-.71-.3-1.42-.44-2.13s-.24-1.25-.35-1.88-.22-1.26-.32-1.89a104.26,104.26,0,0,1,20.94-80.78c.52-.66,1-1.31,1.57-2q1.59-1.94,3.28-3.78t3.45-3.62a103.8,103.8,0,0,1,69.2-30.43c1.49-.07,3-.1,4.49-.1l2,0,1.32,0c.58,0,1.16,0,1.74.07.86,0,1.71.08,2.56.15.39,0,.79,0,1.18.09l1.52.14.54.06c.8.07,1.59.16,2.38.27,0,0,0,0,0,0,.81.1,1.61.22,2.42.34l.45.07c.66.1,1.33.21,2,.33,1,.17,2,.36,3,.57.66.13,1.32.27,2,.43.4.08.79.17,1.18.27,1.2.29,2.39.59,3.57.92l1.77.51c.77.23,1.53.46,2.29.71s1.47.48,2.2.73l2,.71,1.08.41c.49.18,1,.38,1.47.57l1.11.46a17.33,17.33,0,0,0,1.72.72,16.35,16.35,0,0,0,5.53.95,16.53,16.53,0,0,0,16.5-15.67c0-.28,0-.57,0-.85A16.31,16.31,0,0,0,251.41,146.18Z"/><rect class="cls-1" x="273.32" width="33.89" height="402.78" rx="16.95"/><path class="cls-1" d="M202.57,270.56a16.95,16.95,0,0,0,0,33.89h17.17v81.38a16.95,16.95,0,1,0,33.89,0V270.56Z"/></g></g></svg>